<?xml version='1.0' encoding='iso-8859-1'?>
<svg version="1.1" xmlns="http://www.w3.org/2000/svg" viewBox="0 0 420.715 420.715" xmlns:xlink="http://www.w3.org/1999/xlink" enable-background="new 0 0 420.715 420.715">
  <g>
    <g fill="red">
      <path d="m87.107,226.214c-15.385,0-27.895,12.51-27.895,27.895 0,15.379 12.51,27.895 27.895,27.895s27.895-12.515 27.895-27.895c0-15.385-12.51-27.895-27.895-27.895zm0,38.495c-5.85,0-10.606-4.75-10.606-10.6 0-5.85 4.756-10.606 10.606-10.606s10.606,4.756 10.606,10.606c0,5.85-4.756,10.6-10.606,10.6z"/>
      <path d="m337.31,226.214c-15.379,0-27.895,12.51-27.895,27.895 0,15.379 12.515,27.895 27.895,27.895 15.385,0 27.901-12.515 27.901-27.895 0-15.385-12.522-27.895-27.901-27.895zm0,38.495c-5.844,0-10.6-4.75-10.6-10.6 0-5.85 4.756-10.606 10.6-10.606 5.85,0 10.606,4.756 10.606,10.606 0,5.85-4.762,10.6-10.606,10.6z"/>
      <rect width="144.695" x="139.864" y="254.487" height="17.295"/>
      <polygon points="398.705,200.048 318.164,184.29 238.52,145.924 171.21,138.711 103.528,147.163     55.097,175.425 34.694,153.206 12.12,153.206 21.946,177.55 7.527,177.55 7.527,212.342 0,217.546 0,253.503 16.986,261.868     24.623,246.349 17.295,242.74 17.295,226.61 24.815,221.4 24.815,194.838 56.133,194.838 109.187,163.876 171.368,156.122     233.712,162.793 312.658,200.828 391.86,216.324 403.42,224.305 403.42,246.995 399.951,250.663 399.951,262.672 417.24,262.672     417.24,257.549 420.715,253.888 420.715,215.224   "/>
    </g>
  </g>
</svg>
